<svg width="80" height="80" viewBox="0 0 80 80" fill="none" xmlns="http://www.w3.org/2000/svg">
<g id="logo">
<g id="rest">
<path id="Vector" d="M0 0H80V80H0V0Z" fill="#F7DF1E"/>
<path id="Vector_2" d="M21.035 66.8539L27.1572 63.1488C28.3383 65.2429 29.4127 67.0147 31.9898 67.0147C34.4602 67.0147 36.0176 66.0484 36.0176 62.2897V36.7278H43.5356V62.3959C43.5356 70.1826 38.9713 73.7269 32.3121 73.7269C26.298 73.7269 22.807 70.6121 21.0349 66.8532" fill="black"/>
</g>
<path id="s" d="M47.619 66.0483L53.7404 62.504C55.3518 65.1356 57.4462 67.0687 61.1513 67.0687C64.2664 67.0687 66.2528 65.5112 66.2528 63.3632C66.2528 60.7855 64.2123 59.8725 60.7753 58.3694L58.8964 57.5633C53.4722 55.2546 49.8741 52.3548 49.8741 46.2328C49.8741 40.5942 54.1701 36.2979 60.883 36.2979C65.6624 36.2979 69.0993 37.9628 71.5692 42.3126L65.7158 46.0715C64.4269 43.7625 63.0311 42.8498 60.8831 42.8498C58.6814 42.8498 57.2851 44.246 57.2851 46.0715C57.2851 48.327 58.6814 49.2401 61.9031 50.6364L63.7824 51.4419C70.1729 54.1808 73.771 56.973 73.771 63.2557C73.771 70.0225 68.4547 73.7275 61.3126 73.7275C54.3315 73.7275 49.8205 70.3982 47.6191 66.0483" fill="black"/>
</g>
</svg>
