<?xml version="1.0" encoding="UTF-8" standalone="no"?>
<!DOCTYPE svg PUBLIC "-//W3C//DTD SVG 1.1//EN" "http://www.w3.org/Graphics/SVG/1.1/DTD/svg11.dtd">
<svg width="100%" height="100%" viewBox="0 0 24 24" version="1.1" xmlns="http://www.w3.org/2000/svg" xmlns:xlink="http://www.w3.org/1999/xlink" xml:space="preserve" xmlns:serif="http://www.serif.com/" style="fill-rule:evenodd;clip-rule:evenodd;stroke-linejoin:round;stroke-miterlimit:2;">
    <path d="M12,2C17.514,2 22,6.486 22,12C22,17.514 17.514,22 12,22C6.486,22 2,17.514 2,12C2,6.486 6.486,2 12,2ZM12,0C5.373,0 0,5.373 0,12C0,18.627 5.373,24 12,24C18.627,24 24,18.627 24,12C24,5.373 18.627,0 12,0ZM18,16.538L13.408,11.99L17.954,7.403L16.538,6L11.993,10.589L7.405,6.046L6,7.451L10.593,12.003L6.046,16.595L7.451,18L12.006,13.404L16.597,17.954L18,16.538Z" style="fill:white;fill-rule:nonzero;"/>
</svg>
