<?xml version="1.0" encoding="UTF-8" standalone="no"?>
<!DOCTYPE svg PUBLIC "-//W3C//DTD SVG 1.1//EN" "http://www.w3.org/Graphics/SVG/1.1/DTD/svg11.dtd">
<svg width="100%" height="100%" viewBox="0 0 24 24" version="1.1" xmlns="http://www.w3.org/2000/svg" xmlns:xlink="http://www.w3.org/1999/xlink" xml:space="preserve" xmlns:serif="http://www.serif.com/" style="fill-rule:evenodd;clip-rule:evenodd;stroke-linejoin:round;stroke-miterlimit:2;">
    <path d="M3,6L3,24L21,24L21,6L3,6ZM8,20C8,20.552 7.552,21 7,21C6.448,21 6,20.552 6,20L6,10C6,9.448 6.448,9 7,9C7.552,9 8,9.448 8,10L8,20ZM13,20C13,20.552 12.552,21 12,21C11.448,21 11,20.552 11,20L11,10C11,9.448 11.448,9 12,9C12.552,9 13,9.448 13,10L13,20ZM18,20C18,20.552 17.552,21 17,21C16.448,21 16,20.552 16,20L16,10C16,9.448 16.448,9 17,9C17.552,9 18,9.448 18,10L18,20ZM22,2L22,4L2,4L2,2L7.711,2C8.611,2 9.342,0.901 9.342,0L14.657,0C14.657,0.901 15.387,2 16.288,2L22,2Z" style="fill:white;fill-rule:nonzero;"/>
</svg>
