<svg width="56" height="56" viewBox="0 0 56 56" fill="none" xmlns="http://www.w3.org/2000/svg">
<path fill-rule="evenodd" clip-rule="evenodd" d="M18.4777 40.5463L7.11667 9.33333H2.33333C1.71267 9.33333 1.12 9.08833 0.683667 8.64967C0.245 8.21333 0 7.61833 0 7C0 5.712 1.043 4.66667 2.33333 4.66667H10.3833L23.1443 39.725C25.1067 39.9607 26.8543 40.8917 28.1353 42.2637L54.404 32.704L56 37.0883L30.219 46.4707C30.2937 46.914 30.3333 47.369 30.3333 47.8333C30.3333 52.3413 26.6723 56 22.1667 56C17.6587 56 14 52.3413 14 47.8333C14 44.653 15.8223 41.895 18.4777 40.5463V40.5463ZM22.1667 44.772C23.856 44.772 25.228 46.144 25.228 47.8333C25.228 49.5227 23.856 50.897 22.1667 50.897C20.475 50.897 19.103 49.5227 19.103 47.8333C19.103 46.144 20.475 44.772 22.1667 44.772ZM35.6977 16.0953L46.8207 12.047L53.2047 29.5867L26.5907 39.2747L20.2067 21.7327L31.311 17.6913L34.4027 26.1823L38.787 24.5863L35.6977 16.0953V16.0953ZM36.9507 13.1553L19.4087 19.5393L14.6207 6.384L32.1627 0L36.9507 13.1553V13.1553Z" fill="white"/>
</svg>
