<?xml version="1.0" encoding="UTF-8" standalone="no"?>
<!DOCTYPE svg PUBLIC "-//W3C//DTD SVG 1.1//EN" "http://www.w3.org/Graphics/SVG/1.1/DTD/svg11.dtd">
<svg width="100%" height="100%" viewBox="0 0 24 24" version="1.1" xmlns="http://www.w3.org/2000/svg" xmlns:xlink="http://www.w3.org/1999/xlink" xml:space="preserve" xmlns:serif="http://www.serif.com/" style="fill-rule:evenodd;clip-rule:evenodd;stroke-linejoin:round;stroke-miterlimit:2;">
    <path d="M11.5,0C17.847,0 23,5.153 23,11.5C23,17.847 17.847,23 11.5,23C5.153,23 0,17.847 0,11.5C0,5.153 5.153,0 11.5,0ZM11.5,1C17.295,1 22,5.705 22,11.5C22,17.295 17.295,22 11.5,22C5.705,22 1,17.295 1,11.5C1,5.705 5.705,1 11.5,1ZM12,11L18,11L18,12L12,12L12,18L11,18L11,12L5,12L5,11L11,11L11,5L12,5L12,11Z" style="fill:white;"/>
</svg>
