<svg width="40" height="40" viewBox="0 0 40 40" fill="none" xmlns="http://www.w3.org/2000/svg">
<g clip-path="url(#clip0)">
<path d="M38.5183 33.43L30.2233 25.135C31.8317 22.6017 32.7617 19.5983 32.7617 16.3833C32.7617 7.35 25.4133 0 16.38 0C7.34667 0 0 7.35 0 16.3833C0 25.4167 7.34667 32.7667 16.3817 32.7667C19.4383 32.7667 22.3017 31.925 24.7517 30.4617L33.12 38.83C36.6933 42.3983 42.0933 37.0033 38.5183 33.43ZM5.07833 16.3833C5.07833 10.1517 10.15 5.08 16.3817 5.08C22.6133 5.08 27.685 10.15 27.685 16.3833C27.685 22.6167 22.6133 27.6867 16.3817 27.6867C10.15 27.6867 5.07833 22.615 5.07833 16.3833ZM8.42833 13.4433C11.735 5.77833 22.8683 6.66667 24.965 14.6917C20.7417 9.735 13.31 9.20167 8.42833 13.4433Z" fill="black"/>
</g>
<defs>
<clipPath id="clip0">
<rect width="40" height="40" fill="white"/>
</clipPath>
</defs>
</svg>
